<svg xmlns="http://www.w3.org/2000/svg" xmlns:svg="http://www.w3.org/2000/svg" id="svg33" width="803.618" height="200.67" version="1.1" xml:space="preserve" style="shape-rendering:geometricPrecision;text-rendering:geometricPrecision;image-rendering:optimizeQuality;fill-rule:evenodd;clip-rule:evenodd" viewBox="0 0 36000 6000"><defs id="defs1"><style id="style1" type="text/css">.fil32{fill:#fefefe}.fil5{fill:#2b5ca2}.fil2{fill:#3467b3}.fil25{fill:#35793b}.fil4{fill:#3c75bf}.fil24{fill:#408743}.fil1{fill:#468bd2}.fil21{fill:#4c9c50}.fil31{fill:#4f9adb}.fil3{fill:#529bde}.fil6{fill:#541a41}.fil9{fill:#751f57}.fil7{fill:#8a2462}.fil13{fill:#93241f}.fil27{fill:#a52b21}.fil15{fill:#a52b22}.fil10{fill:#a82c78}.fil23{fill:#b0cb29}.fil30{fill:#b0cb31}.fil12{fill:#b43024}.fil8{fill:#c13082}.fil0{fill:#d13590}.fil22{fill:#d4da17}.fil14,.fil28{fill:#d64e2a}.fil26{fill:#d8399b}.fil11{fill:#da4f29}.fil18{fill:#dc7024}.fil20{fill:#e39322}.fil17{fill:#e8a71b}.fil19{fill:#efc20d}.fil29{fill:#f0cd06}.fil16{fill:#f1d323}</style></defs><g id="Layer_x0020_1"><metadata id="CorelCorpID_0Corel-Layer"/><polygon id="polygon1" points=".02 1326.77 383.02 1547.9 766.03 1769.04 383.02 1990.16 .02 2211.3 .02 1769.03" class="fil0"/><polygon id="polygon2" points=".02 2211.3 383.02 2432.42 766.03 2653.55 383.02 2874.69 .02 3095.81 .02 2653.55" class="fil1"/><polygon id="polygon3" points=".02 3095.81 383.02 3316.95 766.03 3538.08 383.02 3759.21 .02 3980.34 .02 3538.07" class="fil2"/><polygon id="polygon4" points="766.02 1769.03 383.01 1990.16 0 2211.3 383 2432.42 766.02 2653.55 766.02 2211.3" class="fil3"/><polygon id="polygon5" points="766.02 2653.55 383.01 2874.69 0 3095.81 383 3316.95 766.02 3538.07 766.02 3095.81" class="fil4"/><polygon id="polygon6" points="766.02 3538.07 383.01 3759.21 0 3980.34 383 4201.47 766.02 4422.6 766.02 3980.34" class="fil5"/><polygon id="polygon7" points="2298.06 0 2298.06 442.26 2298.06 884.53 1915.05 663.39 1532.05 442.27 1915.05 221.13" class="fil6"/><polygon id="polygon8" points="1532.04 442.26 1532.04 884.53 1532.04 1326.79 1149.03 1105.65 766.03 884.53 1149.03 663.39" class="fil7"/><polygon id="polygon9" points="766.02 884.53 766.02 1326.79 766.02 1769.05 383.01 1547.92 .01 1326.79 383.01 1105.65" class="fil8"/><polygon id="polygon10" points="2298.06 884.51 1915.04 663.38 1532.03 442.25 1532.03 884.51 1532.03 1326.77 1915.04 1105.64" class="fil9"/><polygon id="polygon11" points="1532.04 1326.77 1149.02 1105.64 766.01 884.52 766.01 1326.77 766.01 1769.03 1149.02 1547.9" class="fil10"/><polygon id="polygon12" points="4596.11 1326.8 4213.09 1547.92 3830.09 1769.06 3830.09 1326.8 3830.09 884.54 4213.09 1105.66" class="fil11"/><polygon id="polygon13" points="3830.09 884.54 3447.07 1105.66 3064.07 1326.79 3064.07 884.54 3064.07 442.28 3447.07 663.4" class="fil12"/><polygon id="polygon14" points="3064.07 442.27 2681.05 663.4 2298.04 884.53 2298.04 442.27 2298.04 .01 2681.05 221.14" class="fil13"/><polygon id="polygon15" points="3830.1 1769.05 3830.09 1326.78 3830.09 884.52 3447.08 1105.65 3064.08 1326.78 3447.08 1547.91" class="fil14"/><polygon id="polygon16" points="3064.07 1326.78 3064.07 884.52 3064.07 442.26 2681.06 663.38 2298.06 884.52 2681.06 1105.65" class="fil15"/><polygon id="polygon17" points="4596.11 3980.35 4213.1 3759.22 3830.1 3538.08 4213.1 3316.96 4596.11 3095.82 4596.11 3538.09" class="fil16"/><polygon id="polygon18" points="4596.11 3095.82 4213.1 2874.7 3830.1 2653.56 4213.1 2432.43 4596.11 2211.31 4596.11 2653.56" class="fil17"/><polygon id="polygon19" points="4596.11 2211.31 4213.1 1990.17 3830.1 1769.04 4213.1 1547.91 4596.11 1326.78 4596.11 1769.05" class="fil18"/><polygon id="polygon20" points="3830.11 3538.09 4213.11 3316.96 4596.13 3095.82 4213.12 2874.7 3830.11 2653.56 3830.11 3095.82" class="fil19"/><polygon id="polygon21" points="3830.11 2653.56 4213.11 2432.43 4596.13 2211.31 4213.12 1990.17 3830.11 1769.05 3830.11 2211.31" class="fil20"/><polygon id="polygon22" points="2298.06 5307.11 2298.06 4864.85 2298.06 4422.58 2681.06 4643.72 3064.07 4864.84 2681.06 5085.97" class="fil21"/><polygon id="polygon23" points="3830.1 4422.58 3830.1 3980.32 3830.1 3538.06 4213.1 3759.19 4596.11 3980.32 4213.1 4201.46" class="fil22"/><polygon id="polygon24" points="3064.08 3980.34 3447.09 4201.47 3830.11 4422.59 3830.11 3980.34 3830.11 3538.08 3447.09 3759.21" class="fil23"/><polygon id="polygon25" points="2298.04 5307.11 2298.04 4864.85 2298.04 4422.58 1915.03 4643.72 1532.03 4864.84 1915.03 5085.97" class="fil24"/><polygon id="polygon26" points="1532.04 4864.84 1532.04 4422.58 1532.04 3980.31 1915.04 4201.45 2298.05 4422.57 1915.04 4643.71" class="fil25"/><polygon id="polygon27" points="1532.04 2211.3 1915.04 2432.42 2298.05 2653.55 1915.04 2874.69 1532.04 3095.81 1532.04 2653.55" class="fil26"/><polygon id="polygon28" points="2298.05 1769.04 2298.05 2211.3 2298.05 2653.55 1915.04 2432.43 1532.04 2211.31 1915.04 1990.17" class="fil27"/><polygon id="polygon29" points="3064.07 2211.3 2681.05 2432.43 2298.05 2653.55 2298.05 2211.3 2298.05 1769.04 2681.05 1990.17" class="fil28"/><polygon id="polygon30" points="3064.06 2211.3 2681.05 2432.42 2298.05 2653.55 2681.05 2874.69 3064.06 3095.81 3064.06 2653.55" class="fil29"/><polygon id="polygon31" points="3064.07 3095.81 2681.05 2874.68 2298.05 2653.55 2298.05 3095.81 2298.05 3538.07 2681.05 3316.94" class="fil30"/><polygon id="polygon32" points="2298.05 3538.07 2298.05 3095.81 2298.05 2653.55 1915.04 2874.68 1532.04 3095.8 1915.04 3316.94" class="fil31"/><path id="path32" d="M11411.97 1409.59l338.62 0 0 2370.4 -194.5 0 -144.13 0 -677.26 0c0,-225.75 0,-451.51 0,-677.26l338.62 0 0 338.62 338.63 0 0 -2031.76zm677.25 0l338.63 0 0 2370.4 -338.63 0 0 -2370.4zm-2709.01 2031.76l677.25 0 0 -1693.13 -677.25 0 0 1693.13zm677.25 0l0 338.63 -677.25 0 -71.29 0 -267.34 0 0 -2370.4c338.62,0 677.26,0 1015.88,0l0 338.63 338.63 0 0 1693.13 -338.63 0zm-1693.13 -2031.76l338.62 0 0 2031.76 -338.62 0 0 338.63 -677.26 0 0 -338.63 -338.62 0 0 -2031.76 338.62 0 0 2031.76 677.26 0 0 -2031.76zm-2709.02 0c338.62,0 677.26,0 1015.88,0l0 338.63 338.62 0 0 677.25 -338.62 0 0 338.63 338.62 0 0 1015.88 -338.62 0 0 -1015.88 -677.26 0 0 1015.88 -338.62 0 0 -2370.4zm338.62 338.63l0 677.25 677.26 0 0 -677.25 -677.26 0z" class="fil32" style="fill:#000"/><path id="path33" d="M17528.36 1409.59l0 338.63 338.63 0 338.62 0 0 2031.76 338.62 0 0 -2370.4c-225.75,0 -451.5,0 -677.25,0l0 1354.52 -338.63 0 0 -1015.88 -338.62 0 0 2031.76 -338.62 0 0 -2370.4c225.75,0 451.5,0 677.25,0zm3047.64 1015.88l677.26 0 0 1354.52c-338.62,0 -677.26,0 -1015.88,0l0 -338.63 677.26 0 0 -677.25c-225.75,0 -451.51,0 -677.26,0l0 -1354.52c338.62,0 677.26,0 1015.88,0l0 338.63 -677.26 0 0 677.25zm-1354.51 1015.88l677.26 0 0 338.63c-338.62,0 -677.26,0 -1015.88,0l0 -2370.4c338.62,0 677.26,0 1015.88,0l0 338.63 -677.26 0 0 677.25 338.63 0 0 338.63 -338.63 0 0 677.25zm-3724.9 -1015.88l677.26 0 0 -677.25 -677.26 0 0 677.25zm677.26 338.63l-677.26 0 0 1015.88 -338.62 0 0 -2031.76 338.62 0 0 -338.63 677.26 0 0 338.63 338.62 0 0 2031.76 -338.62 0 0 -1015.88zm-1354.52 677.25l-338.63 0 0 338.63 -677.25 0 0 -338.63 -338.63 0 0 -1693.13 338.63 0 0 -338.63 677.25 0 0 338.63 338.64 0 0 338.62 -338.64 0 0 -338.62 -677.25 0 0 1693.13 677.25 0 0 -677.25 -338.61 0 0 -338.63 677.25 0 0.01 0c0,338.63 -0.01,677.25 -0.01,1015.88z" class="fil32" style="fill:#000"/></g></svg>